<svg xmlns="http://www.w3.org/2000/svg" width="21" height="21.525" viewBox="0 0 21 21.525">
  <path id="filter_1_" data-name="filter (1)" d="M20.591,0H1.4a.9.9,0,0,0-.8.49.914.914,0,0,0,.071.951l7.031,9.9.007.01A2.009,2.009,0,0,1,8.1,12.547v8.075a.9.9,0,0,0,.9.9.925.925,0,0,0,.354-.071L13.3,19.948a.856.856,0,0,0,.589-.844V12.547a2.009,2.009,0,0,1,.394-1.192l.007-.01,7.03-9.9a.913.913,0,0,0,.071-.951.9.9,0,0,0-.8-.49ZM13.4,10.708a3.11,3.11,0,0,0-.606,1.839v6.424L9.193,20.345v-7.8a3.109,3.109,0,0,0-.607-1.839L1.761,1.092h18.47Zm0,0" transform="translate(-0.496 0)" fill="#464646"/>
</svg>
