<svg xmlns="http://www.w3.org/2000/svg" width="33.83" height="27.486" viewBox="0 0 33.83 27.486">
  <g id="Twiiter_Icon" data-name="Twiiter Icon" transform="translate(-168.086 -5480.522)">
    <g id="twitter" transform="translate(168.086 5480.522)">
      <g id="Group_14193" data-name="Group 14193" transform="translate(0 0)">
        <path id="Path_58294" data-name="Path 58294" d="M33.83,100.639a14.46,14.46,0,0,1-4,1.1A6.9,6.9,0,0,0,32.885,97.9a13.86,13.86,0,0,1-4.4,1.679,6.935,6.935,0,0,0-12,4.743,7.141,7.141,0,0,0,.161,1.582,19.631,19.631,0,0,1-14.3-7.254,6.937,6.937,0,0,0,2.131,9.269,6.849,6.849,0,0,1-3.134-.854v.076a6.967,6.967,0,0,0,5.557,6.815,6.922,6.922,0,0,1-1.818.228,6.134,6.134,0,0,1-1.313-.118,7,7,0,0,0,6.481,4.831,13.936,13.936,0,0,1-8.6,2.958,12.987,12.987,0,0,1-1.66-.1,19.525,19.525,0,0,0,10.64,3.112c12.762,0,19.74-10.572,19.74-19.735,0-.307-.011-.6-.025-.9A13.836,13.836,0,0,0,33.83,100.639Z" transform="translate(0 -97.385)"/>
      </g>
    </g>
  </g>
</svg>
