<svg xmlns="http://www.w3.org/2000/svg" width="36.736" height="34.44" viewBox="0 0 36.736 34.44">
  <g id="image-gallery-solid" transform="translate(-2 -2)">
    <path id="Path_58360" data-name="Path 58360" d="M36.492,2.8c0-.441-.566-.8-1.265-.8H7.4c-.7,0-1.265.357-1.265.8v.8H36.492Z" transform="translate(-0.836)" fill="#fff"/>
    <path id="Path_58361" data-name="Path 58361" d="M37.664,6.8c0-.441-.536-.8-1.2-.8H5.318c-.662,0-1.2.357-1.2.8v.8H37.664Z" transform="translate(-0.428 -0.808)" fill="#fff"/>
    <path id="Path_58362" data-name="Path 58362" d="M36.578,10H4.158A2.287,2.287,0,0,0,2,12.4V35.658a2.287,2.287,0,0,0,2.158,2.4H36.578a2.287,2.287,0,0,0,2.158-2.4V12.4A2.287,2.287,0,0,0,36.578,10ZM9.531,14.4a3.65,3.65,0,0,1,3.444,3.826,3.65,3.65,0,0,1-3.444,3.826,3.65,3.65,0,0,1-3.444-3.826A3.65,3.65,0,0,1,9.531,14.4ZM34.144,32.955H6.592l8.564-9.526a.759.759,0,0,1,1.148,0l4.225,4.693,5.82-6.644a.759.759,0,0,1,1.148,0l6.647,7.384Z" transform="translate(0 -1.616)" fill="#fff"/>
  </g>
</svg>
