<svg xmlns="http://www.w3.org/2000/svg" width="28.79" height="28.79" viewBox="0 0 28.79 28.79">
  <g id="Group_15022" data-name="Group 15022" transform="translate(-545.199 -5476.797)">
    <g id="linkedin" transform="translate(545.199 5476.797)">
      <path id="Path_59655" data-name="Path 59655" d="M27.089,27.278H27.1V16.718c0-5.165-1.112-9.144-7.151-9.144a6.269,6.269,0,0,0-5.646,3.1h-.084V8.056H8.489V27.277h5.962V17.76c0-2.506.475-4.929,3.578-4.929,3.058,0,3.1,2.86,3.1,5.09v9.358Z" transform="translate(1.694 1.512)"/>
      <path id="Path_59656" data-name="Path 59656" d="M.4,7.977H6.365V27.2H.4Z" transform="translate(0.079 1.592)"/>
      <path id="Path_59657" data-name="Path 59657" d="M3.457,0A3.473,3.473,0,1,0,6.914,3.457,3.458,3.458,0,0,0,3.457,0Z"/>
    </g>
  </g>
</svg>
