<svg xmlns="http://www.w3.org/2000/svg" width="36.586" height="36.586" viewBox="0 0 36.586 36.586">
  <g id="settings_2_" data-name="settings (2)" transform="translate(0 0)">
    <g id="Group_14736" data-name="Group 14736" transform="translate(0 0)">
      <path id="Path_59671" data-name="Path 59671" d="M20,36.586H16.585a2.283,2.283,0,0,1-2.265-2.012l-.364-2.86a14.406,14.406,0,0,1-2.095-.867l-2.277,1.77a2.274,2.274,0,0,1-3.026-.192l-2.4-2.4a2.268,2.268,0,0,1-.186-3.017l1.77-2.279a14.074,14.074,0,0,1-.867-2.095l-2.866-.364A2.288,2.288,0,0,1,0,20V16.585A2.283,2.283,0,0,1,2.012,14.32l2.86-.364a14.405,14.405,0,0,1,.867-2.095L3.971,9.584a2.273,2.273,0,0,1,.194-3.027l2.4-2.4A2.269,2.269,0,0,1,9.582,3.97L11.86,5.741a14.354,14.354,0,0,1,2.1-.867l.364-2.866A2.283,2.283,0,0,1,16.585,0H20a2.283,2.283,0,0,1,2.265,2.012l.364,2.86a14.354,14.354,0,0,1,2.1.867L27,3.97a2.272,2.272,0,0,1,3.026.194l2.4,2.4a2.268,2.268,0,0,1,.186,3.017l-1.77,2.279a14.074,14.074,0,0,1,.867,2.095l2.866.364a2.286,2.286,0,0,1,2.006,2.267V20a2.283,2.283,0,0,1-2.012,2.265l-2.86.364a14.406,14.406,0,0,1-.867,2.095L32.616,27a2.271,2.271,0,0,1-.194,3.026l-2.4,2.4A2.266,2.266,0,0,1,27,32.615l-2.279-1.77a14.074,14.074,0,0,1-2.095.867l-.364,2.866A2.286,2.286,0,0,1,20,36.586Zm-8.217-7.409a.773.773,0,0,1,.372.1,12.8,12.8,0,0,0,2.7,1.122.761.761,0,0,1,.546.636l.427,3.354a.771.771,0,0,0,.753.677H20a.768.768,0,0,0,.752-.669l.428-3.36a.761.761,0,0,1,.546-.636,12.8,12.8,0,0,0,2.7-1.122.761.761,0,0,1,.838.064l2.668,2.073a.75.75,0,0,0,1-.052l2.416-2.416a.754.754,0,0,0,.059-1.006L29.337,25.27a.761.761,0,0,1-.064-.838,12.8,12.8,0,0,0,1.122-2.7.761.761,0,0,1,.636-.546l3.354-.427A.773.773,0,0,0,35.061,20V16.585a.768.768,0,0,0-.669-.752l-3.36-.428a.761.761,0,0,1-.636-.546,12.8,12.8,0,0,0-1.122-2.7.758.758,0,0,1,.064-.838l2.073-2.668a.747.747,0,0,0-.05-1L28.945,5.236a.75.75,0,0,0-1.006-.059L25.271,7.25a.764.764,0,0,1-.84.064,12.742,12.742,0,0,0-2.7-1.122.761.761,0,0,1-.546-.636L20.755,2.2A.773.773,0,0,0,20,1.524H16.585a.768.768,0,0,0-.752.669l-.428,3.36a.765.765,0,0,1-.546.637,12.738,12.738,0,0,0-2.7,1.12.763.763,0,0,1-.84-.063L8.648,5.175a.747.747,0,0,0-1,.05L5.235,7.643a.754.754,0,0,0-.059,1.006l2.073,2.668a.761.761,0,0,1,.064.838,12.715,12.715,0,0,0-1.122,2.7.761.761,0,0,1-.636.546L2.2,15.832a.771.771,0,0,0-.677.753V20a.768.768,0,0,0,.669.752l3.36.428a.761.761,0,0,1,.636.546,12.8,12.8,0,0,0,1.122,2.7.758.758,0,0,1-.064.838L5.174,27.936a.747.747,0,0,0,.05,1L7.64,31.349a.753.753,0,0,0,1.006.059l2.668-2.073a.785.785,0,0,1,.47-.159Z" transform="translate(0 0)"/>
    </g>
    <g id="Group_14737" data-name="Group 14737" transform="translate(10.671 10.671)">
      <path id="Path_59672" data-name="Path 59672" d="M14.622,22.244a7.622,7.622,0,1,1,7.622-7.622A7.631,7.631,0,0,1,14.622,22.244Zm0-13.72a6.1,6.1,0,1,0,6.1,6.1A6.1,6.1,0,0,0,14.622,8.524Z" transform="translate(-7 -7)"/>
    </g>
  </g>
</svg>
