<svg xmlns="http://www.w3.org/2000/svg" width="27.41" height="24.064" viewBox="0 0 27.41 24.064">
  <g id="right" transform="translate(27.41 24.064) rotate(180)">
    <g id="Group_14701" data-name="Group 14701" transform="translate(0 0)">
      <path id="Path_59661" data-name="Path 59661" d="M27.189,11.625,15.812.376c-.295-.295-.489-.537-.784-.242s.239.746.534,1.041l10.125,10.45H.377c-.417,0-.192.48-.192.9s-.417,0,0,0h25.5L15.562,23.065c-.295.295-.828.483-.534.778a.755.755,0,0,0,1.067,0L27.189,12.2C27.484,11.905,27.484,11.92,27.189,11.625Z" transform="translate(0 0)" fill="#141414"/>
    </g>
  </g>
</svg>
