<svg xmlns="http://www.w3.org/2000/svg" width="15.88" height="13.233" viewBox="0 0 15.88 13.233">
  <g id="letter" transform="translate(0 -2)">
    <g id="Group_14192" data-name="Group 14192" transform="translate(0 2)">
      <path id="Path_58292" data-name="Path 58292" d="M8.866,12.434a1.6,1.6,0,0,1-.926.248,1.6,1.6,0,0,1-.926-.248L0,8.9v6.263a1.926,1.926,0,0,0,1.985,1.86h11.91a1.926,1.926,0,0,0,1.985-1.86V8.9Z" transform="translate(0 -3.79)"/>
      <path id="Path_58293" data-name="Path 58293" d="M13.895,2H1.985A1.926,1.926,0,0,0,0,3.86v.62a.643.643,0,0,0,.331.558l7.278,3.72a.629.629,0,0,0,.331.062.629.629,0,0,0,.331-.062l7.278-3.72a.643.643,0,0,0,.331-.558V3.86A1.926,1.926,0,0,0,13.895,2Z" transform="translate(0 -2)"/>
    </g>
  </g>
</svg>
