<svg xmlns="http://www.w3.org/2000/svg" width="15.091" height="19.599" viewBox="0 0 15.091 19.599">
  <g id="location_on" transform="translate(-5 -2)">
    <g id="Group_14190" data-name="Group 14190" transform="translate(5 2)">
      <path id="Path_58290" data-name="Path 58290" d="M12.546,2C8.374,2,5,5.067,5,8.86,5,14,12.546,21.6,12.546,21.6S20.091,14,20.091,8.86C20.091,5.067,16.717,2,12.546,2Zm0,9.31A2.581,2.581,0,0,1,9.851,8.86a2.581,2.581,0,0,1,2.695-2.45,2.581,2.581,0,0,1,2.695,2.45A2.581,2.581,0,0,1,12.546,11.31Z" transform="translate(-5 -2)"/>
    </g>
  </g>
</svg>
