<svg xmlns="http://www.w3.org/2000/svg" width="24.36" height="22.731" viewBox="0 0 24.36 22.731">
  <g id="Date" transform="translate(-49.007 0.252)">
    <path id="pencil" d="M27.04,9.172A2.944,2.944,0,0,0,24.914,8.3a2.989,2.989,0,0,0-2.126.872L6.625,25.362a.557.557,0,0,0-.136.245L5.344,30.241a.519.519,0,0,0,.136.518.538.538,0,0,0,.382.164A.246.246,0,0,0,6,30.895l4.633-1.145a.527.527,0,0,0,.245-.136L27.04,13.4a2.978,2.978,0,0,0,0-4.225ZM7.77,25.743,20.117,13.4l2.7,2.7L10.468,28.442Zm13.11-13.11,1.145-1.145,2.7,2.7-1.145,1.145ZM7.307,26.806l2.1,2.1L6.6,29.614Zm18.97-14.173-.763.763-2.7-2.7.763-.763a1.916,1.916,0,0,1,1.363-.545,1.852,1.852,0,0,1,1.336.545A1.925,1.925,0,0,1,26.276,12.634Zm3.407,17.852a.547.547,0,0,1-.545.545H13.875a.545.545,0,1,1,0-1.09H29.138A.53.53,0,0,1,29.683,30.486Z" transform="translate(43.684 -8.552)"/>
  </g>
</svg>
